<svg width="34" height="33" viewBox="0 0 34 33" fill="none" xmlns="http://www.w3.org/2000/svg">
<path d="M26 10.5L10 25.5L11.8576 26.0031C21.123 28.5125 29.3476 19.4966 26 10.5Z" fill="black" stroke="black"/>
<path d="M27.3598 27.3598L22.3407 26.015L26.015 22.3407L27.3598 27.3598Z" fill="black"/>
<path d="M32.3669 11.9692L28.2841 15.1834L27.542 10.0405L32.3669 11.9692Z" fill="black"/>
<path d="M31.6329 19.705L26.5508 20.7878L28.1542 15.8452L31.6329 19.705Z" fill="black"/>
<path d="M9.85516 31.6312L8.7638 26.5509L13.7091 28.1459L9.85516 31.6312Z" fill="black"/>
<path d="M19.2003 31.4985L15.7099 27.6492L20.7886 26.5511L19.2003 31.4985Z" fill="black"/>
<line x1="3.65373" y1="28.6393" x2="28.6537" y2="4.63931" stroke="black"/>
<path d="M12.2789 2.7725L11.9734 2.53485C10.6944 1.54008 9.12031 1 7.5 1L8.93878 2.22242C13.2838 5.91404 12.5349 12.8248 7.5 15.5C9.07446 15.8149 10.7055 15.3729 11.9055 14.3062L12.6361 13.6568C15.9458 10.7149 15.7744 5.49119 12.2789 2.7725Z" fill="black" stroke="black"/>
<path d="M1.5 7L1.83677 8.03647H2.92658L2.04491 8.67705L2.38168 9.71353L1.5 9.07295L0.618322 9.71353L0.955093 8.67705L0.0734153 8.03647H1.16323L1.5 7Z" fill="black"/>
<path d="M4.5 4L4.83677 5.03647H5.92658L5.04491 5.67705L5.38168 6.71353L4.5 6.07295L3.61832 6.71353L3.95509 5.67705L3.07342 5.03647H4.16323L4.5 4Z" fill="black"/>
<path d="M4.5 10L4.83677 11.0365H5.92658L5.04491 11.6771L5.38168 12.7135L4.5 12.0729L3.61832 12.7135L3.95509 11.6771L3.07342 11.0365H4.16323L4.5 10Z" fill="black"/>
</svg>
